<?xml version="1.0" encoding="UTF-8" standalone="no"?>
<!DOCTYPE svg PUBLIC "-//W3C//DTD SVG 1.1//EN"
 "http://www.w3.org/Graphics/SVG/1.1/DTD/svg11.dtd">
<!-- Generated by graphviz version 2.26.3 (20100126.1600)
 -->
<!-- Title: models_diagram Pages: 1 -->
<svg width="795pt" height="478pt"
 viewBox="0.00 0.00 795.00 478.00" xmlns="http://www.w3.org/2000/svg" xmlns:xlink="http://www.w3.org/1999/xlink">
<g id="graph1" class="graph" transform="scale(1 1) rotate(0) translate(4 474)">
<title>models_diagram</title>
<polygon fill="white" stroke="white" points="-4,5 -4,-474 792,-474 792,5 -4,5"/>
<!-- Etablissement -->
<g id="node1" class="node"><title>Etablissement</title>
<polyline fill="none" stroke="black" points="11.5,-381 152.5,-381 "/>
<path fill="none" stroke="black" d="M152.5,-381C158.5,-381 164.5,-387 164.5,-393"/>
<polyline fill="none" stroke="black" points="164.5,-393 164.5,-457 "/>
<path fill="none" stroke="black" d="M164.5,-457C164.5,-463 158.5,-469 152.5,-469"/>
<polyline fill="none" stroke="black" points="152.5,-469 11.5,-469 "/>
<path fill="none" stroke="black" d="M11.5,-469C5.5,-469 -0.5,-463 -0.5,-457"/>
<polyline fill="none" stroke="black" points="-0.5,-457 -0.5,-393 "/>
<path fill="none" stroke="black" d="M-0.5,-393C-0.5,-387 5.5,-381 11.5,-381"/>
<text text-anchor="middle" x="82" y="-452.4" font-family="Times Roman,serif" font-size="14.00">Etablissement</text>
<polyline fill="none" stroke="black" points="-0.5,-443 164.5,-443 "/>
<text text-anchor="start" x="7.5" y="-426.4" font-family="Times Roman,serif" font-size="14.00">nom :string</text>
<text text-anchor="start" x="7.5" y="-408.4" font-family="Times Roman,serif" font-size="14.00">created_at :datetime</text>
<text text-anchor="start" x="7.5" y="-390.4" font-family="Times Roman,serif" font-size="14.00">updated_at :datetime</text>
</g>
<!-- Utilisateur -->
<g id="node3" class="node"><title>Utilisateur</title>
<polyline fill="none" stroke="black" points="270.5,-1 411.5,-1 "/>
<path fill="none" stroke="black" d="M411.5,-1C417.5,-1 423.5,-7 423.5,-13"/>
<polyline fill="none" stroke="black" points="423.5,-13 423.5,-185 "/>
<path fill="none" stroke="black" d="M423.5,-185C423.5,-191 417.5,-197 411.5,-197"/>
<polyline fill="none" stroke="black" points="411.5,-197 270.5,-197 "/>
<path fill="none" stroke="black" d="M270.5,-197C264.5,-197 258.5,-191 258.5,-185"/>
<polyline fill="none" stroke="black" points="258.5,-185 258.5,-13 "/>
<path fill="none" stroke="black" d="M258.5,-13C258.5,-7 264.5,-1 270.5,-1"/>
<text text-anchor="middle" x="341" y="-180.4" font-family="Times Roman,serif" font-size="14.00">Utilisateur</text>
<polyline fill="none" stroke="black" points="258.5,-171 423.5,-171 "/>
<text text-anchor="start" x="266.5" y="-154.4" font-family="Times Roman,serif" font-size="14.00">nom :string</text>
<text text-anchor="start" x="266.5" y="-136.4" font-family="Times Roman,serif" font-size="14.00">prenom :string</text>
<text text-anchor="start" x="266.5" y="-118.4" font-family="Times Roman,serif" font-size="14.00">login :string</text>
<text text-anchor="start" x="266.5" y="-100.4" font-family="Times Roman,serif" font-size="14.00">password :string</text>
<text text-anchor="start" x="266.5" y="-82.4" font-family="Times Roman,serif" font-size="14.00">email :string</text>
<text text-anchor="start" x="266.5" y="-64.4" font-family="Times Roman,serif" font-size="14.00">telephone :string</text>
<text text-anchor="start" x="266.5" y="-46.4" font-family="Times Roman,serif" font-size="14.00">created_at :datetime</text>
<text text-anchor="start" x="266.5" y="-28.4" font-family="Times Roman,serif" font-size="14.00">updated_at :datetime</text>
<text text-anchor="start" x="266.5" y="-10.4" font-family="Times Roman,serif" font-size="14.00">photo :string</text>
</g>
<!-- Etablissement&#45;&gt;Utilisateur -->
<g id="edge2" class="edge"><title>Etablissement&#45;&gt;Utilisateur</title>
<path fill="none" stroke="black" d="M62.232,-370.784C52.6166,-334.735 47.1143,-287.647 68,-252 107.128,-185.218 187.248,-145.382 250.621,-123.183"/>
<polygon fill="black" stroke="black" points="62.2994,-371.021 60.7061,-381.871 63.667,-375.831 65.0346,-380.64 65.0346,-380.64 65.0346,-380.64 63.667,-375.831 69.363,-379.409 62.2994,-371.021 62.2994,-371.021"/>
<ellipse fill="black" stroke="black" cx="254.478" cy="-121.86" rx="4.00001" ry="4.00001"/>
</g>
<!-- Service -->
<g id="node6" class="node"><title>Service</title>
<polyline fill="none" stroke="black" points="88.5,-253 229.5,-253 "/>
<path fill="none" stroke="black" d="M229.5,-253C235.5,-253 241.5,-259 241.5,-265"/>
<polyline fill="none" stroke="black" points="241.5,-265 241.5,-329 "/>
<path fill="none" stroke="black" d="M241.5,-329C241.5,-335 235.5,-341 229.5,-341"/>
<polyline fill="none" stroke="black" points="229.5,-341 88.5,-341 "/>
<path fill="none" stroke="black" d="M88.5,-341C82.5,-341 76.5,-335 76.5,-329"/>
<polyline fill="none" stroke="black" points="76.5,-329 76.5,-265 "/>
<path fill="none" stroke="black" d="M76.5,-265C76.5,-259 82.5,-253 88.5,-253"/>
<text text-anchor="middle" x="159" y="-324.4" font-family="Times Roman,serif" font-size="14.00">Service</text>
<polyline fill="none" stroke="black" points="76.5,-315 241.5,-315 "/>
<text text-anchor="start" x="84.5" y="-298.4" font-family="Times Roman,serif" font-size="14.00">nom :string</text>
<text text-anchor="start" x="84.5" y="-280.4" font-family="Times Roman,serif" font-size="14.00">created_at :datetime</text>
<text text-anchor="start" x="84.5" y="-262.4" font-family="Times Roman,serif" font-size="14.00">updated_at :datetime</text>
</g>
<!-- Etablissement&#45;&gt;Service -->
<g id="edge4" class="edge"><title>Etablissement&#45;&gt;Service</title>
<path fill="none" stroke="black" d="M113.669,-372.355C118.448,-364.411 123.372,-356.226 128.134,-348.31"/>
<polygon fill="black" stroke="black" points="113.654,-372.381 104.643,-378.63 111.076,-376.665 108.499,-380.95 108.499,-380.95 108.499,-380.95 111.076,-376.665 112.355,-383.269 113.654,-372.381 113.654,-372.381"/>
<ellipse fill="black" stroke="black" cx="130.39" cy="-344.559" rx="4.00002" ry="4.00002"/>
</g>
<!-- Site -->
<g id="node2" class="node"><title>Site</title>
<polyline fill="none" stroke="black" points="270.5,-253 411.5,-253 "/>
<path fill="none" stroke="black" d="M411.5,-253C417.5,-253 423.5,-259 423.5,-265"/>
<polyline fill="none" stroke="black" points="423.5,-265 423.5,-329 "/>
<path fill="none" stroke="black" d="M423.5,-329C423.5,-335 417.5,-341 411.5,-341"/>
<polyline fill="none" stroke="black" points="411.5,-341 270.5,-341 "/>
<path fill="none" stroke="black" d="M270.5,-341C264.5,-341 258.5,-335 258.5,-329"/>
<polyline fill="none" stroke="black" points="258.5,-329 258.5,-265 "/>
<path fill="none" stroke="black" d="M258.5,-265C258.5,-259 264.5,-253 270.5,-253"/>
<text text-anchor="middle" x="341" y="-324.4" font-family="Times Roman,serif" font-size="14.00">Site</text>
<polyline fill="none" stroke="black" points="258.5,-315 423.5,-315 "/>
<text text-anchor="start" x="266.5" y="-298.4" font-family="Times Roman,serif" font-size="14.00">nom :string</text>
<text text-anchor="start" x="266.5" y="-280.4" font-family="Times Roman,serif" font-size="14.00">created_at :datetime</text>
<text text-anchor="start" x="266.5" y="-262.4" font-family="Times Roman,serif" font-size="14.00">updated_at :datetime</text>
</g>
<!-- Site&#45;&gt;Utilisateur -->
<g id="edge6" class="edge"><title>Site&#45;&gt;Utilisateur</title>
<path fill="none" stroke="black" d="M341,-242.562C341,-230.853 341,-218.093 341,-205.169"/>
<polygon fill="black" stroke="black" points="341,-242.565 336.5,-252.565 341,-247.565 341,-252.565 341,-252.565 341,-252.565 341,-247.565 345.5,-252.565 341,-242.565 341,-242.565"/>
<ellipse fill="black" stroke="black" cx="341" cy="-201.108" rx="4" ry="4"/>
</g>
<!-- Fonction -->
<g id="node4" class="node"><title>Fonction</title>
<polyline fill="none" stroke="black" points="452.5,-253 593.5,-253 "/>
<path fill="none" stroke="black" d="M593.5,-253C599.5,-253 605.5,-259 605.5,-265"/>
<polyline fill="none" stroke="black" points="605.5,-265 605.5,-329 "/>
<path fill="none" stroke="black" d="M605.5,-329C605.5,-335 599.5,-341 593.5,-341"/>
<polyline fill="none" stroke="black" points="593.5,-341 452.5,-341 "/>
<path fill="none" stroke="black" d="M452.5,-341C446.5,-341 440.5,-335 440.5,-329"/>
<polyline fill="none" stroke="black" points="440.5,-329 440.5,-265 "/>
<path fill="none" stroke="black" d="M440.5,-265C440.5,-259 446.5,-253 452.5,-253"/>
<text text-anchor="middle" x="523" y="-324.4" font-family="Times Roman,serif" font-size="14.00">Fonction</text>
<polyline fill="none" stroke="black" points="440.5,-315 605.5,-315 "/>
<text text-anchor="start" x="448.5" y="-298.4" font-family="Times Roman,serif" font-size="14.00">intitule :string</text>
<text text-anchor="start" x="448.5" y="-280.4" font-family="Times Roman,serif" font-size="14.00">created_at :datetime</text>
<text text-anchor="start" x="448.5" y="-262.4" font-family="Times Roman,serif" font-size="14.00">updated_at :datetime</text>
</g>
<!-- Fonction&#45;&gt;Utilisateur -->
<g id="edge8" class="edge"><title>Fonction&#45;&gt;Utilisateur</title>
<path fill="none" stroke="black" d="M475.089,-244.877C461.068,-229.623 445.272,-212.439 429.572,-195.359"/>
<polygon fill="black" stroke="black" points="475.388,-245.203 478.843,-255.61 478.772,-248.884 482.156,-252.565 482.156,-252.565 482.156,-252.565 478.772,-248.884 485.469,-249.52 475.388,-245.203 475.388,-245.203"/>
<ellipse fill="black" stroke="black" cx="426.503" cy="-192.02" rx="4.00002" ry="4.00002"/>
</g>
<!-- Parametre -->
<g id="node5" class="node"><title>Parametre</title>
<polyline fill="none" stroke="black" points="634.5,-253 775.5,-253 "/>
<path fill="none" stroke="black" d="M775.5,-253C781.5,-253 787.5,-259 787.5,-265"/>
<polyline fill="none" stroke="black" points="787.5,-265 787.5,-329 "/>
<path fill="none" stroke="black" d="M787.5,-329C787.5,-335 781.5,-341 775.5,-341"/>
<polyline fill="none" stroke="black" points="775.5,-341 634.5,-341 "/>
<path fill="none" stroke="black" d="M634.5,-341C628.5,-341 622.5,-335 622.5,-329"/>
<polyline fill="none" stroke="black" points="622.5,-329 622.5,-265 "/>
<path fill="none" stroke="black" d="M622.5,-265C622.5,-259 628.5,-253 634.5,-253"/>
<text text-anchor="middle" x="705" y="-324.4" font-family="Times Roman,serif" font-size="14.00">Parametre</text>
<polyline fill="none" stroke="black" points="622.5,-315 787.5,-315 "/>
<text text-anchor="start" x="630.5" y="-298.4" font-family="Times Roman,serif" font-size="14.00">tooltip :boolean</text>
<text text-anchor="start" x="630.5" y="-280.4" font-family="Times Roman,serif" font-size="14.00">created_at :datetime</text>
<text text-anchor="start" x="630.5" y="-262.4" font-family="Times Roman,serif" font-size="14.00">updated_at :datetime</text>
</g>
<!-- Parametre&#45;&gt;Utilisateur -->
<g id="edge10" class="edge"><title>Parametre&#45;&gt;Utilisateur</title>
<path fill="none" stroke="black" d="M614.886,-247.982C558.727,-217.434 486.743,-178.278 430.667,-147.775"/>
<polygon fill="black" stroke="black" points="614.98,-248.033 621.614,-256.764 619.372,-250.422 623.764,-252.811 623.764,-252.811 623.764,-252.811 619.372,-250.422 625.915,-248.858 614.98,-248.033 614.98,-248.033"/>
<ellipse fill="black" stroke="black" cx="427.076" cy="-145.822" rx="4.00002" ry="4.00002"/>
<text text-anchor="middle" x="611.5" y="-221.4" font-family="Times Roman,serif" font-size="14.00">admins</text>
</g>
<!-- Service&#45;&gt;Utilisateur -->
<g id="edge12" class="edge"><title>Service&#45;&gt;Utilisateur</title>
<path fill="none" stroke="black" d="M206.911,-244.877C220.932,-229.623 236.728,-212.439 252.428,-195.359"/>
<polygon fill="black" stroke="black" points="206.612,-245.203 196.531,-249.52 203.228,-248.884 199.844,-252.565 199.844,-252.565 199.844,-252.565 203.228,-248.884 203.157,-255.61 206.612,-245.203 206.612,-245.203"/>
<ellipse fill="black" stroke="black" cx="255.497" cy="-192.02" rx="4.00002" ry="4.00002"/>
</g>
</g>
</svg>
